<svg width="144" height="27" viewBox="0 0 144 27" fill="none" xmlns="http://www.w3.org/2000/svg">
<path d="M0.646524 22.8273V20.3073H4.03652V3.23733H1.00652V0.71733H6.76652V20.3073H10.1565V22.8273H0.646524ZM16.2114 22.8273L13.1814 19.7673L14.9514 17.9973L17.3814 20.3973H24.5514L26.2014 18.7473V14.1573L24.5214 12.4173H18.0114V10.0173H24.5214L26.2014 8.27733V4.79733L24.5514 3.11733L17.8914 3.14733L15.4614 5.54733L13.6914 3.77733L16.7214 0.71733H25.7814L28.9314 3.86733V8.99733L26.7414 11.2173L28.9314 13.4673V19.6773L25.7814 22.8273H16.2114ZM42.568 22.8273V18.3273H31.648V15.5673L42.568 0.71733H45.298V15.8373H48.058V18.3273H45.298V22.8273H42.568ZM42.568 15.8373V5.30733L34.798 15.8373H42.568ZM49.7242 26.1273L50.9242 19.2873H53.5642L51.2542 26.1273H49.7242ZM60.3032 22.8273L57.2732 19.7673L59.0432 17.9973L61.4732 20.3973H68.3732L70.0232 18.7473V13.1073L68.3732 11.4573H58.2932V0.71733H71.7932V3.23733H61.0232V9.02733H69.6032L72.7532 12.1773V19.6773L69.6032 22.8273H60.3032ZM76.4961 22.8273V20.3073H79.8861V3.23733H76.8561V0.71733H82.6161V20.3073H86.0061V22.8273H76.4961ZM92.691 22.8273L89.541 19.6773V3.86733L92.691 0.71733H102.291L105.441 3.86733V19.6773L102.291 22.8273H92.691ZM93.921 20.3973H101.061L102.711 18.7473V4.79733L101.061 3.14733H93.921L92.271 4.79733L92.301 18.7473L93.921 20.3973ZM109.371 22.8273V19.2873H112.011V22.8273H109.371ZM115.9 22.8273V20.3073H119.29V3.23733H116.26V0.71733H122.02V20.3073H125.41V22.8273H115.9ZM131.465 22.8273L128.435 19.7673L130.205 17.9973L132.635 20.3973H139.535L141.185 18.7473V13.1073L139.535 11.4573H129.455V0.71733H142.955V3.23733H132.185V9.02733H140.765L143.915 12.1773V19.6773L140.765 22.8273H131.465Z" fill="white"/>
</svg>
