<svg width="26" height="17" viewBox="0 0 26 17" fill="none" xmlns="http://www.w3.org/2000/svg">
<path d="M0.272489 16.3672V13.7712L8.94049 5.25719V3.14519L7.75249 1.91319L3.26449 1.93519L1.48249 3.73919L0.184489 2.41919L2.40649 0.153186H8.65449L10.9425 2.46319V6.04919L2.51649 14.3872V14.5192H11.1845V16.3672H0.272489ZM16.0638 16.3672L13.8418 14.1232L15.1398 12.8252L16.9218 14.5852H22.1798L23.3898 13.3752V10.0092L22.1578 8.73319H17.3838V6.97319H22.1578L23.3898 5.69719V3.14519L22.1798 1.91319L17.2958 1.93519L15.5138 3.69519L14.2158 2.39719L16.4378 0.153186H23.0818L25.3918 2.46319V6.22519L23.7858 7.85319L25.3918 9.50319V14.0572L23.0818 16.3672H16.0638Z" fill="white"/>
</svg>
