<svg width="72" height="19" viewBox="0 0 72 19" fill="none" xmlns="http://www.w3.org/2000/svg">
<path d="M2.28052 16.3672L0.0585235 14.1232L1.35652 12.8252L3.13852 14.5852H8.39652L9.60652 13.3752V10.0092L8.37452 8.73319H3.60052V6.97319H8.37452L9.60652 5.69719V3.14519L8.39652 1.91319L3.51252 1.93519L1.73052 3.69519L0.432524 2.39719L2.65452 0.153186H9.29852L11.6085 2.46319V6.22519L10.0025 7.85319L11.6085 9.50319V14.0572L9.29852 16.3672H2.28052ZM21.6087 16.3672V13.0672H13.6007V11.0432L21.6087 0.153186H23.6107V11.2412H25.6347V13.0672H23.6107V16.3672H21.6087ZM21.6087 11.2412V3.51919L15.9107 11.2412H21.6087ZM26.8566 18.7872L27.7366 13.7712H29.6726L27.9786 18.7872H26.8566ZM39.7845 16.3672V13.0672H31.7765V11.0432L39.7845 0.153186H41.7865V11.2412H43.8105V13.0672H41.7865V16.3672H39.7845ZM39.7845 11.2412V3.51919L34.0865 11.2412H39.7845ZM48.3324 16.3672L46.0224 14.0572V2.46319L48.3324 0.153186H55.3724L57.6824 2.46319V14.0572L55.3724 16.3672H48.3324ZM49.2344 14.5852H54.4704L55.6804 13.3752V3.14519L54.4704 1.93519H49.2344L48.0244 3.14519L48.0464 13.3752L49.2344 14.5852ZM62.5227 16.3672L60.3007 14.1232L61.5987 12.8252L63.3807 14.5852H68.4407L69.6507 13.3752V9.23919L68.4407 8.02919H61.0487V0.153186H70.9487V2.00119H63.0507V6.24719H69.3427L71.6527 8.55719V14.0572L69.3427 16.3672H62.5227Z" fill="white"/>
</svg>
