<svg width="36" height="10" viewBox="0 0 36 10" fill="none" xmlns="http://www.w3.org/2000/svg">
<path d="M0.803254 9.0094L3.79125 0.165399H5.48325L8.47125 9.0094H7.33125L6.57525 6.7054H2.69925L1.95525 9.0094H0.803254ZM3.02325 5.7454H6.26325L4.77525 1.1974H4.49925L3.02325 5.7454ZM10.7392 9.0094L9.47916 7.7494V3.9934L10.7392 2.7334H13.6072L14.7112 3.8254V4.8214H13.6552V4.1734L13.0552 3.5734H11.1952L10.5352 4.2334V7.4614L11.1952 8.1334H14.6512V9.0094H10.7392ZM17.5023 9.0094L16.3983 7.9174V3.5734H15.7383V2.7334H16.4223L16.6863 1.1254H17.4543V2.7334H18.7863V3.5734H17.4543V7.5454L18.0183 8.1334H19.0623V9.0094H17.5023ZM20.3458 2.0494V0.633399H21.4018V2.0494H20.3458ZM20.3458 9.0094V2.7334H21.4018V9.0094H20.3458ZM25.1935 9.0094L22.5295 2.7334H23.6815L25.7095 7.9534H25.9855L28.0015 2.7334H29.1655L26.5015 9.0094H25.1935ZM31.1415 9.0094L29.8815 7.7494V3.9934L31.1415 2.7334H33.9375L35.1975 3.9934V6.2614H30.9375V7.4734L31.5975 8.1334H35.0895V9.0094H31.1415ZM30.9375 5.4214H34.1415V4.2334L33.4815 3.5734H31.5975L30.9375 4.2334V5.4214Z" fill="#5D4E7B"/>
</svg>
