<svg width="101" height="12" viewBox="0 0 101 12" fill="none" xmlns="http://www.w3.org/2000/svg">
<path d="M0.224 12L4.208 0.207999H6.464L10.448 12H8.928L7.92 8.928H2.752L1.76 12H0.224ZM3.184 7.648H7.504L5.52 1.584H5.152L3.184 7.648ZM13.4719 12L11.7919 10.32V5.312L13.4719 3.632H17.2959L18.7679 5.088V6.416H17.3599V5.552L16.5599 4.752H14.0799L13.1999 5.632V9.936L14.0799 10.832H18.6879V12H13.4719ZM22.4894 12L21.0174 10.544V4.752H20.1374V3.632H21.0494L21.4014 1.488H22.4254V3.632H24.2014V4.752H22.4254V10.048L23.1774 10.832H24.5694V12H22.4894ZM26.2808 2.72V0.832H27.6888V2.72H26.2808ZM26.2808 12V3.632H27.6888V12H26.2808ZM32.7444 12L29.1924 3.632H30.7284L33.4324 10.592H33.8004L36.4884 3.632H38.0404L34.4884 12H32.7444ZM40.675 12L38.995 10.32V5.312L40.675 3.632H44.403L46.083 5.312V8.336H40.403V9.952L41.283 10.832H45.939V12H40.675ZM40.403 7.216H44.675V5.632L43.795 4.752H41.283L40.403 5.632V7.216ZM53.55 12L51.87 10.32V5.312L53.55 3.632H56.622L57.918 4.96V0.207999H59.326V12H57.918V10.688L56.622 12H53.55ZM56.27 10.88L57.918 9.216V6.432L56.27 4.752H54.158L53.278 5.632V10L54.158 10.88H56.27ZM63.425 12L61.745 10.32V5.312L63.425 3.632H67.153L68.833 5.312V8.336H63.153V9.952L64.033 10.832H68.689V12H63.425ZM63.153 7.216H67.425V5.632L66.545 4.752H64.033L63.153 5.632V7.216ZM73.51 12L69.958 3.632H71.494L74.198 10.592H74.566L77.254 3.632H78.806L75.254 12H73.51ZM80.3276 2.72V0.832H81.7356V2.72H80.3276ZM80.3276 12V3.632H81.7356V12H80.3276ZM85.8313 12L84.1513 10.32V5.312L85.8313 3.632H89.6553L91.1273 5.088V6.416H89.7193V5.552L88.9193 4.752H86.4393L85.5593 5.632V9.936L86.4393 10.832H91.0473V12H85.8313ZM94.7688 12L93.0888 10.32V5.312L94.7688 3.632H98.4968L100.177 5.312V8.336H94.4968V9.952L95.3768 10.832H100.033V12H94.7688ZM94.4968 7.216H98.7688V5.632L97.8888 4.752H95.3768L94.4968 5.632V7.216Z" fill="#0D1118"/>
</svg>
