<svg width="140" height="10" viewBox="0 0 140 10" fill="none" xmlns="http://www.w3.org/2000/svg">
<path d="M0.104523 9.73907L3.09252 0.895074H4.78452L7.77252 9.73907H6.63252L5.87652 7.43507H2.00052L1.25652 9.73907H0.104523ZM2.32452 6.47507H5.56452L4.07652 1.92707H3.80052L2.32452 6.47507ZM10.2917 9.73907L7.62768 3.46307H8.77968L10.8077 8.68307H11.0837L13.0997 3.46307H14.2637L11.5997 9.73907H10.2917ZM15.8662 9.73907L14.6182 8.47907V7.05107L15.8662 5.79107H19.0582V5.01107L18.4102 4.35107H15.4342V3.46307H18.8662L20.1142 4.72307V9.73907H19.0582V8.76707L18.0862 9.73907H15.8662ZM16.3342 8.89907H17.8222L19.0582 7.67507V6.61907L16.3342 6.63107L15.6742 7.27907V8.23907L16.3342 8.89907ZM22.026 2.77907V1.36307H23.082V2.77907H22.026ZM22.026 9.73907V3.46307H23.082V9.73907H22.026ZM25.0377 9.73907V0.895074H26.0937V9.73907H25.0377ZM28.7334 9.73907L27.4854 8.47907V7.05107L28.7334 5.79107H31.9254V5.01107L31.2774 4.35107H28.3014V3.46307H31.7334L32.9814 4.72307V9.73907H31.9254V8.76707L30.9534 9.73907H28.7334ZM29.2014 8.89907H30.6894L31.9254 7.67507V6.61907L29.2014 6.63107L28.5414 7.27907V8.23907L29.2014 8.89907ZM34.8932 9.73907V0.895074H35.9492V4.45907L36.9092 3.46307H39.2252L40.4732 4.72307V8.47907L39.2252 9.73907H36.9092L35.9492 8.75507V9.73907H34.8932ZM37.1852 8.89907H38.7692L39.4172 8.23907V4.96307L38.7692 4.30307H37.1852L35.9492 5.56307V7.65107L37.1852 8.89907ZM42.2994 9.73907V0.895074H43.3554V9.73907H42.2994ZM46.4271 9.73907L45.1671 8.47907V4.72307L46.4271 3.46307H49.2231L50.4831 4.72307V6.99107H46.2231V8.20307L46.8831 8.86307H50.3751V9.73907H46.4271ZM46.2231 6.15107H49.4271V4.96307L48.7671 4.30307H46.8831L46.2231 4.96307V6.15107ZM54.9674 9.73907V0.895074H56.0234V4.45907L56.9834 3.46307H59.2994L60.5474 4.72307V8.47907L59.2994 9.73907H56.9834L56.0234 8.75507V9.73907H54.9674ZM57.2594 8.89907H58.8434L59.4914 8.23907V4.96307L58.8434 4.30307H57.2594L56.0234 5.56307V7.65107L57.2594 8.89907ZM63.0576 9.73907L61.8096 8.47907V7.05107L63.0576 5.79107H66.2496V5.01107L65.6016 4.35107H62.6256V3.46307H66.0576L67.3056 4.72307V9.73907H66.2496V8.76707L65.2776 9.73907H63.0576ZM63.5256 8.89907H65.0136L66.2496 7.67507V6.61907L63.5256 6.63107L62.8656 7.27907V8.23907L63.5256 8.89907ZM69.2174 9.73907V0.895074H70.2734V9.73907H69.2174ZM72.9131 9.73907L71.6651 8.47907V7.05107L72.9131 5.79107H76.1051V5.01107L75.4571 4.35107H72.4811V3.46307H75.9131L77.1611 4.72307V9.73907H76.1051V8.76707L75.1331 9.73907H72.9131ZM73.3811 8.89907H74.8691L76.1051 7.67507V6.61907L73.3811 6.63107L72.7211 7.27907V8.23907L73.3811 8.89907ZM79.0729 9.73907V3.46307H80.1289V4.59107L81.2209 3.46307H83.5369L84.7849 4.72307V9.73907H83.7289V4.98707L83.0929 4.30307H81.4969L80.1289 5.69507V9.73907H79.0729ZM87.8061 9.73907L86.5461 8.47907V4.72307L87.8061 3.46307H90.6741L91.7781 4.55507V5.55107H90.7221V4.90307L90.1221 4.30307H88.2621L87.6021 4.96307V8.19107L88.2621 8.86307H91.7181V9.73907H87.8061ZM94.5092 9.73907L93.2492 8.47907V4.72307L94.5092 3.46307H97.3052L98.5652 4.72307V6.99107H94.3052V8.20307L94.9652 8.86307H98.4572V9.73907H94.5092ZM94.3052 6.15107H97.5092V4.96307L96.8492 4.30307H94.9652L94.3052 4.96307V6.15107ZM103.049 2.77907V1.36307H104.105V2.77907H103.049ZM103.049 9.73907V3.46307H104.105V9.73907H103.049ZM106.061 9.73907V3.46307H107.117V4.59107L108.209 3.46307H110.525L111.773 4.72307V9.73907H110.717V4.98707L110.081 4.30307H108.485L107.117 5.69507V9.73907H106.061ZM117.49 9.73907L116.23 8.47907V0.895074H117.322V8.10707L117.982 8.76707H121.162L121.822 8.10707V0.895074H122.914V8.47907L121.654 9.73907H117.49ZM124.848 9.73907V8.73107H129.204L129.852 8.07107V6.30707L129.204 5.64707H125.784L124.536 4.39907V2.15507L125.784 0.895074H130.488V1.90307H126.276L125.616 2.56307L125.628 4.02707L126.276 4.68707H129.696L130.944 5.94707V8.47907L129.696 9.73907H124.848ZM132.734 9.73907V0.895074H137.534L139.37 2.75507V7.87907L137.534 9.73907H132.734ZM133.826 8.76707H137.042L138.278 7.50707V3.12707L137.042 1.86707H133.826V8.76707Z" fill="white"/>
</svg>
