<svg width="95" height="115" viewBox="0 0 95 115" fill="none" xmlns="http://www.w3.org/2000/svg">
<path d="M44.3883 33.449L44.7765 32.0001L44.7765 31.9999L45.1648 30.551L46.6137 30.9392L46.6143 30.9394L46.6882 30.9592C46.9951 31.0399 47.7123 31.222 48.8545 31.5092L44.3883 33.449ZM44.3883 33.449L44.3889 33.4491M44.3883 33.449L44.3889 33.4491M44.3889 33.4491L40.0789 49.5341L39.6907 50.983L41.1396 51.3712C41.3147 51.4181 41.9505 51.5988 43.0783 51.9214C44.2055 52.2437 45.1157 52.488 45.8009 52.6505C46.4657 52.808 47.4385 53.0266 48.7113 53.3067C50.0214 53.595 51.1672 53.7847 52.1361 53.8641C52.1363 53.8642 52.1365 53.8642 52.1366 53.8642L52.2592 52.3692M44.3889 33.4491L64.7196 39.4727C65.3532 40.4665 65.7803 41.6039 66.0255 42.8567C66.2924 44.2133 66.2078 45.6241 65.8217 47.0652C65.4941 48.2878 64.9886 49.3882 64.2871 50.3419C63.5707 51.3164 62.6703 52.0733 61.6 52.5898C60.6862 53.0309 59.7643 53.3872 58.8381 53.6556C57.8051 53.9553 56.6217 54.0658 55.3249 54.0283C55.3247 54.0283 55.3245 54.0283 55.3243 54.0283L55.3678 52.5289M52.2592 52.3692C53.1371 52.4415 54.1737 52.4947 55.3678 52.5289M52.2592 52.3692C51.3806 52.2972 50.3056 52.1217 49.0337 51.8418C47.7616 51.5618 46.7989 51.3454 46.1469 51.1909C45.4944 51.0362 44.6094 50.7991 43.4907 50.4792C42.3719 50.1592 41.7186 49.9735 41.5278 49.9223M52.2592 52.3692L41.5278 49.9223M55.3678 52.5289C56.562 52.5635 57.5807 52.4587 58.4207 52.2148L55.3678 52.5289ZM41.5278 49.9223L41.916 48.4734L41.5278 49.9223ZM51.589 33.7328C52.4128 33.9334 53.5043 34.2769 54.864 34.7637C56.2231 35.2503 57.3529 35.7166 58.2536 36.1616C59.1543 36.6067 60.1181 37.2018 61.1421 37.9455C62.1681 38.6893 62.9384 39.4673 63.4547 40.2789L64.7195 39.4725C64.0758 38.461 63.1564 37.5532 62.0236 36.7318C60.9477 35.9504 59.9111 35.3075 58.9181 34.8168C57.9492 34.3381 56.7622 33.8501 55.3696 33.3515L55.3696 33.3515C53.9895 32.8574 52.8417 32.4941 51.9438 32.2754L51.9431 32.2753C51.125 32.0765 50.0967 31.821 48.8549 31.5093L51.589 33.7328ZM51.589 33.7328C50.7652 33.5327 49.7326 33.2762 48.4892 32.964L51.589 33.7328ZM61.0119 78.6305L61.0115 78.6311C60.3239 79.5276 59.5356 80.283 58.64 80.8784L58.6374 80.8801C57.7144 81.4909 56.6346 81.922 55.4318 82.1983C55.4312 82.1985 55.4305 82.1986 55.4299 82.1988L55.0943 80.7368L61.0119 78.6305ZM61.0119 78.6305C61.7427 77.6767 62.2631 76.5723 62.5937 75.3392L62.5938 75.3389M61.0119 78.6305L62.5938 75.3389M61.0758 66.9959L61.0766 66.9971C61.8572 68.0847 62.4017 69.3327 62.7268 70.7218L61.0758 66.9959ZM61.0758 66.9959C60.2929 65.9073 59.211 64.9183 57.8876 64.0124L61.0758 66.9959ZM62.5938 75.3389C63.0164 73.7618 63.0775 72.2138 62.727 70.7227L62.5938 75.3389ZM70.0211 58.3779L66.0421 59.2254L69.6189 61.1637C73.5703 63.305 76.0903 65.93 77.3689 68.9842C78.6085 71.9461 78.4839 75.8248 76.641 80.7903C75.7006 83.29 74.5242 85.3456 73.1345 86.9882C71.7212 88.654 70.1931 89.8855 68.5532 90.7164L68.5523 90.7168C66.8919 91.5596 64.9199 92.1377 62.6129 92.423L62.6122 92.4231C60.2743 92.7132 57.892 92.7481 55.4635 92.5297L55.4634 92.5296C53.0102 92.3092 50.227 91.8627 47.1074 91.1874L45.711 90.8852L45.3412 92.2653L41.8271 105.38L35.9298 103.8L39.3827 90.914L39.7709 89.4651L38.322 89.0768C35.2787 88.2614 32.9755 87.6243 31.4052 87.1622L29.9307 86.7283L29.5329 88.213L26.0646 101.157L20.1649 99.576L23.6791 86.4609L24.0673 85.012L22.6185 84.6238C21.9434 84.4429 20.9266 84.1603 19.5627 83.7743L19.5606 83.7737C18.1934 83.3889 17.1417 83.0967 16.4083 82.9002L6.70027 80.2989L10.0043 73.0874L15.1192 74.4579C16.3172 74.779 17.5284 74.7717 18.6241 74.2294C19.7124 73.6907 20.4654 72.7333 20.9716 71.5914L21.019 71.4846L21.0492 71.3717L27.2011 48.4126L26.786 48.3014L26.8062 48.2451L27.2165 48.355L31.6088 31.9628L31.6456 31.8256L31.6559 31.6838C31.7755 30.0458 31.4352 28.5376 30.4865 27.3064C29.5509 26.0922 28.1582 25.3228 26.5056 24.88L21.6152 23.5696L23.3468 17.1073L33.9854 20.0122L33.9854 20.0123L33.9923 20.0141C36.4331 20.6681 38.3023 21.1482 39.592 21.4521L41.0083 21.7858L41.3849 20.3803L44.8533 7.43624L50.7516 9.01668L47.3597 21.6751L46.9619 23.1598L48.4559 23.5212C51.5959 24.281 53.914 24.8617 55.4184 25.2649L56.8673 25.6531L57.2556 24.2042L60.6167 11.66L66.5138 13.2402L63.0455 26.1842L62.6901 27.5105L63.9799 27.9815C66.8596 29.0329 69.3344 30.144 71.4131 31.3085C73.4665 32.4591 75.2812 33.8126 76.8587 35.368L76.8596 35.369C78.3706 36.8563 79.4067 38.5487 79.9983 40.4604C80.5852 42.3588 80.6973 44.48 80.2866 46.858L80.2847 46.8693C79.7328 50.2182 78.5811 52.7703 76.9118 54.6296C75.2505 56.4799 72.9855 57.7464 70.0211 58.3779ZM33.6089 79.4721C33.8992 79.5498 34.5861 79.7439 35.6907 80.059L57.8874 64.0122C56.6166 63.1419 55.4037 62.4183 54.248 61.8463L54.2472 61.8459C53.0878 61.2729 51.6596 60.701 49.9786 60.1263C48.3209 59.5578 46.9853 59.1371 45.9856 58.8692C45.0172 58.6097 43.7719 58.2955 42.2495 57.9289L42.2492 57.9288C40.7262 57.5626 39.8393 57.3441 39.5582 57.2688L38.1093 56.8806L37.7211 58.3295L32.5482 77.635L32.16 79.0838L33.6089 79.4721Z" stroke="#FDD674" stroke-width="3"/>
</svg>
