<svg width="92" height="14" viewBox="0 0 92 14" fill="none" xmlns="http://www.w3.org/2000/svg">
<path d="M0.163656 14V0.733999H7.36366L10.1177 3.524V11.21L7.36366 14H0.163656ZM1.80166 12.542H6.62566L8.47966 10.652V4.082L6.62566 2.192H1.80166V12.542ZM13.7911 14L11.9191 12.11V9.968L13.7911 8.078H18.5791V6.908L17.6071 5.918H13.1431V4.586H18.2911L20.1631 6.476V14H18.5791V12.542L17.1211 14H13.7911ZM14.4931 12.74H16.7251L18.5791 10.904V9.32L14.4931 9.338L13.5031 10.31V11.75L14.4931 12.74ZM23.0307 14V12.686H28.0167L28.8627 11.822V10.688L27.9627 9.788H24.2367L22.5807 8.168V6.26L24.2367 4.586H29.5467V5.918H24.9927L24.1647 6.728V7.646L25.0287 8.51H28.7907L30.4467 10.13V12.344L28.8087 14H23.0307ZM32.9448 14V0.733999H34.5288V6.08L35.9688 4.586H39.4428L41.3148 6.476V14H39.7308V6.872L38.7768 5.846H36.3828L34.5288 7.736V14H32.9448ZM44.1772 14V0.733999H45.7612V6.08L47.2012 4.586H50.6752L52.5472 6.476V12.11L50.6752 14H47.2012L45.7612 12.524V14H44.1772ZM47.6152 12.74H49.9912L50.9632 11.75V6.836L49.9912 5.846H47.6152L45.7612 7.736V10.868L47.6152 12.74ZM56.8727 14L54.9827 12.11V6.476L56.8727 4.586H61.3367L63.2267 6.476V12.11L61.3367 14H56.8727ZM57.5567 12.74H60.6527L61.6427 11.75L61.6247 6.836L60.6527 5.846H57.5567L56.5667 6.836V11.75L57.5567 12.74ZM66.9825 14L65.1105 12.11V9.968L66.9825 8.078H71.7705V6.908L70.7985 5.918H66.3345V4.586H71.4825L73.3545 6.476V14H71.7705V12.542L70.3125 14H66.9825ZM67.6845 12.74H69.9165L71.7705 10.904V9.32L67.6845 9.338L66.6945 10.31V11.75L67.6845 12.74ZM76.2221 14V4.586H77.8061V6.278L79.4441 4.586H81.8561V6.17H79.5161L77.8061 7.934V14H76.2221ZM85.0152 14L83.1252 12.11V6.476L85.0152 4.586H88.4712L89.9292 6.08V0.733999H91.5132V14H89.9292V12.524L88.4712 14H85.0152ZM88.0752 12.74L89.9292 10.868V7.736L88.0752 5.846H85.6992L84.7092 6.836V11.75L85.6992 12.74H88.0752Z" fill="#4E36FC"/>
</svg>
