<svg width="84" height="17" viewBox="0 0 84 17" fill="none" xmlns="http://www.w3.org/2000/svg">
<path d="M0.163656 13.4677V0.201651H8.91166V1.71365H1.80166V5.74565H8.15566V7.23965H1.80166V11.9557H8.91166V13.4677H0.163656ZM10.0817 13.4677L13.4117 8.62565L10.0997 4.05365H11.9717L14.6537 7.86965H15.0677L17.7497 4.05365H19.6397L16.3277 8.62565L19.6397 13.4677H17.7137L15.0497 9.39965H14.6537L12.0257 13.4677H10.0817ZM23.0348 13.4677L21.1448 11.5777V5.94365L23.0348 4.05365H27.3368L28.9928 5.69165V7.18565H27.4088V6.21365L26.5088 5.31365H23.7188L22.7288 6.30365V11.1457L23.7188 12.1537H28.9028V13.4677H23.0348ZM31.4155 13.4677V0.201651H32.9995V5.54765L34.4395 4.05365H37.9135L39.7855 5.94365V13.4677H38.2015V6.33965L37.2475 5.31365H34.8535L32.9995 7.20365V13.4677H31.4155ZM43.6739 13.4677L41.8019 11.5777V9.43565L43.6739 7.54565H48.4619V6.37565L47.4899 5.38565H43.0259V4.05365H48.1739L50.0459 5.94365V13.4677H48.4619V12.0097L47.0039 13.4677H43.6739ZM44.3759 12.2077H46.6079L48.4619 10.3717V8.78765L44.3759 8.80565L43.3859 9.77765V11.2177L44.3759 12.2077ZM52.9135 13.4677V4.05365H54.4975V5.74565L56.1355 4.05365H59.6095L61.4815 5.94365V13.4677H59.8975V6.33965L58.9435 5.31365H56.5495L54.4975 7.40165V13.4677H52.9135ZM64.8613 16.8337V15.5197L69.9373 15.5017L70.9273 14.5297V11.9917L69.4693 13.4677H66.0133L64.1233 11.5777V5.94365L66.0133 4.05365H69.4693L70.9273 5.54765V4.05365H72.5113V14.9437L70.6213 16.8337H64.8613ZM69.0733 12.2077L70.9273 10.3357V7.20365L69.0733 5.31365H66.6973L65.7073 6.30365V11.2177L66.6973 12.2077H69.0733ZM77.1227 13.4677L75.2327 11.5777V5.94365L77.1227 4.05365H81.3167L83.2067 5.94365V9.34565H76.8167V11.1637L77.8067 12.1537H83.0447V13.4677H77.1227ZM76.8167 8.08565H81.6227V6.30365L80.6327 5.31365H77.8067L76.8167 6.30365V8.08565Z" fill="#8A8B9F"/>
</svg>
