<svg width="17" height="14" viewBox="0 0 17 14" fill="none" xmlns="http://www.w3.org/2000/svg">
<path fill-rule="evenodd" clip-rule="evenodd" d="M15.3864 9.8144C15.3864 10.5297 14.8043 11.1114 14.0895 11.1114C13.3746 11.1114 12.7925 10.5297 12.7925 9.8144V7.7127H15.3864V9.8144ZM2.19094 5.89567V3.79351C2.19094 3.07865 2.77259 2.49655 3.48791 2.49655C4.20277 2.49655 4.78442 3.07865 4.78442 3.79351V5.89567H2.19094ZM12.7925 5.89566H6.39843V3.79351C6.39843 3.72052 6.39433 3.64798 6.38885 3.5759C7.11512 2.40165 9.31672 2.06452 10.1429 2.03532L10.1155 1.22877L10.0891 0.422668C9.95312 0.426774 7.30626 0.5317 5.71094 1.91808C5.17674 1.28579 4.37839 0.882971 3.4879 0.882971C1.88254 0.882971 0.576904 2.18906 0.576904 3.79351V7.71269H11.1789V9.81439C11.1789 9.8883 11.1826 9.96083 11.188 10.0325C10.4618 11.2062 8.26063 11.5434 7.434 11.573L7.46183 12.3796L7.48737 13.1857C7.62423 13.1811 10.2706 13.0767 11.8664 11.6903C12.4006 12.3226 13.199 12.7249 14.0895 12.7249C15.6948 12.7249 17 11.4197 17 9.81439V5.89566H12.7925Z" fill="#4F46BA"/>
</svg>
