<svg width="88" height="12" viewBox="0 0 88 12" fill="none" xmlns="http://www.w3.org/2000/svg">
<path d="M0.355254 9V7.632H1.25525V1.524H0.355254V0.155999H3.65525V1.524H2.75525V7.632H3.65525V9H0.355254ZM5.26963 11.244V2.724H6.72163V3.648L7.64563 2.724H9.88963L11.2216 4.068V7.668L9.88963 9H7.64563L6.72163 8.088V11.244H5.26963ZM8.00563 7.872H9.24163L9.76963 7.344V4.38L9.24163 3.852H8.00563L6.72163 5.124V6.612L8.00563 7.872ZM12.8985 9V0.155999H14.3505V3.648L15.2745 2.724H17.5185L18.8505 4.068V9H17.3985V4.404L16.8945 3.852H15.6345L14.3505 5.124V9H12.8985ZM21.798 9L20.466 7.668V4.068L21.798 2.724H24.942L26.274 4.068V7.668L24.942 9H21.798ZM22.446 7.884L24.294 7.872L24.822 7.344V4.38L24.294 3.852H22.446L21.918 4.38V7.344L22.446 7.884ZM27.9571 9V2.724H29.4091V3.84L30.5371 2.724H32.7811L34.1131 4.068V9H32.6611V4.404L32.1571 3.852H30.8851L29.4091 5.316V9H27.9571ZM37.0676 9L35.7356 7.668V4.068L37.0676 2.724H39.9476L41.2796 4.068V6.396H37.1876V7.284L37.7156 7.812H41.1716V9H37.0676ZM37.1876 5.28H39.8276V4.38L39.2996 3.852H37.7156L37.1876 4.38V5.28ZM46.9568 9L45.6248 7.668V1.488L46.9568 0.155999H51.0488L52.2488 1.356L51.2768 2.352L50.3888 1.476H47.6648L47.1248 2.004L47.1368 3.96L47.7128 3.432H50.9408L52.2848 4.764V7.668L50.9408 9H46.9568ZM47.6648 7.68H50.2448L50.7728 7.152V5.28L50.2448 4.74L47.7248 4.752L47.1248 5.34L47.1368 7.152L47.6648 7.68ZM54.045 9V7.812H57.333L57.813 7.32V6.912L57.249 6.348H54.921L53.697 5.148V3.936L54.897 2.724H58.593V3.912H55.617L55.149 4.38V4.656L55.689 5.196H58.041L59.265 6.396V7.8L58.065 9H54.045ZM63.6773 9V0.155999H68.6573L69.9893 1.488V4.62L68.6573 5.952H65.1773V9H63.6773ZM65.1773 4.632H67.9493L68.4893 4.104L68.4773 2.004L67.9493 1.476H65.1773V4.632ZM71.129 9V0.155999H72.581V9H71.129ZM75.6588 9L74.3268 7.668V2.724H75.7788V7.32L76.2828 7.872H77.4948L78.7668 6.624V2.724H80.2188V9H78.7668V8.1L77.8548 9H75.6588ZM82.0997 9V7.812H85.3877L85.8677 7.32V6.912L85.3037 6.348H82.9757L81.7517 5.148V3.936L82.9517 2.724H86.6477V3.912H83.6717L83.2037 4.38V4.656L83.7437 5.196H86.0957L87.3197 6.396V7.8L86.1197 9H82.0997Z" fill="#5D4E7B"/>
</svg>
