<svg width="157" height="12" viewBox="0 0 157 12" fill="none" xmlns="http://www.w3.org/2000/svg">
<path d="M0.192804 8.88184V0.0378354H1.2848V7.87384H5.7368V8.88184H0.192804ZM7.51993 8.88184L6.27193 7.62184V6.19384L7.51993 4.93384H10.7119V4.15384L10.0639 3.49384H7.08793V2.60584H10.5199L11.7679 3.86584V8.88184H10.7119V7.90984L9.73993 8.88184H7.51993ZM7.98793 8.04184H9.47593L10.7119 6.81784V5.76184L7.98793 5.77384L7.32793 6.42184V7.38184L7.98793 8.04184ZM13.6797 8.88184V8.00584H17.0037L17.5677 7.42984V6.67384L16.9677 6.07384H14.4837L13.3797 4.99384V3.72184L14.4837 2.60584H18.0237V3.49384H14.9877L14.4357 4.03384V4.64584L15.0117 5.22184H17.5197L18.6237 6.30184V7.77784L17.5317 8.88184H13.6797ZM21.4651 8.88184L20.3611 7.78984V3.44584H19.7011V2.60584H20.3851L20.6491 0.997836H21.4171V2.60584H22.7491V3.44584H21.4171V7.41784L21.9811 8.00584H23.0251V8.88184H21.4651ZM27.6527 8.88184L26.4047 7.62184V6.19384L27.6527 4.93384H30.8447V4.15384L30.1967 3.49384H27.2207V2.60584H30.6527L31.9007 3.86584V8.88184H30.8447V7.90984L29.8727 8.88184H27.6527ZM28.1207 8.04184H29.6087L30.8447 6.81784V5.76184L28.1207 5.77384L27.4607 6.42184V7.38184L28.1207 8.04184ZM34.9285 8.88184L33.6685 7.62184V3.86584L34.9285 2.60584H37.7965L38.9005 3.69784V4.69384H37.8445V4.04584L37.2445 3.44584H35.3845L34.7245 4.10584V7.33384L35.3845 8.00584H38.8405V8.88184H34.9285ZM41.6916 8.88184L40.5876 7.78984V3.44584H39.9276V2.60584H40.6116L40.8756 0.997836H41.6436V2.60584H42.9756V3.44584H41.6436V7.41784L42.2076 8.00584H43.2516V8.88184H41.6916ZM44.5351 1.92184V0.505836H45.5911V1.92184H44.5351ZM44.5351 8.88184V2.60584H45.5911V8.88184H44.5351ZM49.3829 8.88184L46.7189 2.60584H47.8709L49.8989 7.82584H50.1749L52.1909 2.60584H53.3549L50.6909 8.88184H49.3829ZM54.4961 1.92184V0.505836H55.5521V1.92184H54.4961ZM54.4961 8.88184V2.60584H55.5521V8.88184H54.4961ZM58.6838 8.88184L57.5798 7.78984V3.44584H56.9198V2.60584H57.6038L57.8678 0.997836H58.6358V2.60584H59.9678V3.44584H58.6358V7.41784L59.1998 8.00584H60.2438V8.88184H58.6838ZM62.5953 11.1258L63.7233 8.44984H63.2793L60.6993 2.60584H61.8633L63.8793 7.40584H64.1553L66.0153 2.60584H67.1673L63.6633 11.1258H62.5953ZM71.6566 8.88184L70.4086 7.62184V6.19384L71.6566 4.93384H74.8486V4.15384L74.2006 3.49384H71.2246V2.60584H74.6566L75.9046 3.86584V8.88184H74.8486V7.90984L73.8766 8.88184H71.6566ZM72.1246 8.04184H73.6126L74.8486 6.81784V5.76184L72.1246 5.77384L71.4646 6.42184V7.38184L72.1246 8.04184ZM78.9924 8.88184L77.8884 7.78984V3.44584H77.2284V2.60584H77.9124L78.1764 0.997836H78.9444V2.60584H80.2764V3.44584H78.9444V7.41784L79.5084 8.00584H80.5524V8.88184H78.9924ZM84.3281 8.88184V7.46584L89.0561 2.82184V1.66984L88.4081 0.997836L85.9601 1.00984L84.9881 1.99384L84.2801 1.27384L85.4921 0.0378354H88.9001L90.1481 1.29784V3.25384L85.5521 7.80184V7.87384H90.2801V8.88184H84.3281ZM91.8016 8.88184V7.87384H93.1576V1.04584H91.9456V0.0378354H94.2496V7.87384H95.6056V8.88184H91.8016ZM99.9076 8.88184V0.0378354H101.396L104.18 7.10584L106.976 0.0378354H108.476V8.88184H107.372V1.70584L104.492 8.88184H103.88L101 1.71784V8.88184H99.9076ZM111.172 8.88184L109.924 7.62184V6.19384L111.172 4.93384H114.364V4.15384L113.716 3.49384H110.74V2.60584H114.172L115.42 3.86584V8.88184H114.364V7.90984L113.392 8.88184H111.172ZM111.64 8.04184H113.128L114.364 6.81784V5.76184L111.64 5.77384L110.98 6.42184V7.38184L111.64 8.04184ZM118.271 11.1258L119.399 8.44984H118.955L116.375 2.60584H117.539L119.555 7.40584H119.831L121.691 2.60584H122.843L119.339 11.1258H118.271ZM123.28 10.2018L123.76 7.46584H124.816L123.892 10.2018H123.28ZM129.164 8.88184V7.46584L133.892 2.82184V1.66984L133.244 0.997836L130.796 1.00984L129.824 1.99384L129.116 1.27384L130.328 0.0378354H133.736L134.984 1.29784V3.25384L130.388 7.80184V7.87384H135.116V8.88184H129.164ZM138.029 8.88184L136.769 7.62184V1.29784L138.029 0.0378354H141.869L143.129 1.29784V7.62184L141.869 8.88184H138.029ZM138.521 7.90984H141.377L142.037 7.24984V1.66984L141.377 1.00984H138.521L137.861 1.66984L137.873 7.24984L138.521 7.90984ZM144.762 8.88184V7.46584L149.49 2.82184V1.66984L148.842 0.997836L146.394 1.00984L145.422 1.99384L144.714 1.27384L145.926 0.0378354H149.334L150.582 1.29784V3.25384L145.986 7.80184V7.87384H150.714V8.88184H144.762ZM152.235 8.88184V7.87384H153.591V1.04584H152.379V0.0378354H154.683V7.87384H156.039V8.88184H152.235Z" fill="white"/>
</svg>
