<svg width="104" height="15" viewBox="0 0 104 15" fill="none" xmlns="http://www.w3.org/2000/svg">
<path d="M0.566 14V0.733999H2.798L6.974 11.336L11.168 0.733999H13.418V14H11.762V3.236L7.442 14H6.524L2.204 3.254V14H0.566ZM16.4369 3.56V1.436H18.0209V3.56H16.4369ZM16.4369 14V4.586H18.0209V14H16.4369ZM20.9545 14V4.586H22.5385V6.278L24.1765 4.586H27.6505L29.5225 6.476V14H27.9385V6.872L26.9845 5.846H24.5905L22.5385 7.934V14H20.9545ZM34.0543 14L32.1643 12.11V6.476L34.0543 4.586H38.2483L40.1383 6.476V9.878H33.7483V11.696L34.7383 12.686H39.9763V14H34.0543ZM33.7483 8.618H38.5543V6.836L37.5643 5.846H34.7383L33.7483 6.836V8.618ZM53.0984 14.126L51.4784 12.506L50.1284 14H44.8364L42.9644 12.11V9.5L45.0164 7.448L45.8984 6.926L43.8464 4.856V2.624L45.7184 0.733999H49.0484L50.9384 2.624V4.856L49.1564 6.62L48.2024 7.178L51.4064 10.436L53.1164 8.564L54.1424 9.59L52.4504 11.444L54.1064 13.118L53.0984 14.126ZM47.1944 6.188L48.0944 5.666L49.3544 4.424V3.038L48.3644 2.048H46.4204L45.4304 3.038V4.424L47.1944 6.188ZM45.5204 12.686H49.3544L50.4524 11.48L46.9064 7.934L46.0604 8.42L44.5484 9.932V11.696L45.5204 12.686ZM56.9746 14V12.488H63.5086L64.4806 11.498V8.852L63.5086 7.862H58.3786L56.5066 5.99V2.624L58.3786 0.733999H65.4346V2.246H59.1166L58.1266 3.236L58.1446 5.432L59.1166 6.422H64.2466L66.1186 8.312V12.11L64.2466 14H56.9746ZM68.7143 14V0.733999H70.2983V6.08L71.7383 4.586H75.2123L77.0843 6.476V14H75.5003V6.872L74.5463 5.846H72.1523L70.2983 7.736V14H68.7143ZM79.9467 3.56V1.436H81.5307V3.56H79.9467ZM79.9467 14V4.586H81.5307V14H79.9467ZM84.4643 14V4.586H86.0483V6.278L87.6863 4.586H91.1603L93.0323 6.476V14H91.4483V6.872L90.4943 5.846H88.1003L86.0483 7.934V14H84.4643ZM97.5641 14L95.6741 12.11V6.476L97.5641 4.586H101.758L103.648 6.476V9.878H97.2581V11.696L98.2481 12.686H103.486V14H97.5641ZM97.2581 8.618H102.064V6.836L101.074 5.846H98.2481L97.2581 6.836V8.618Z" fill="#4E36FC"/>
</svg>
