<svg width="46" height="15" viewBox="0 0 46 15" fill="none" xmlns="http://www.w3.org/2000/svg">
<path d="M0.163656 14.0846V0.818594H2.39566L8.31766 11.4926V0.818594H9.95566V14.0846H8.01166L2.19766 3.60859H1.80166V14.0846H0.163656ZM14.6676 14.0846L12.7776 12.1946V6.56059L14.6676 4.67059H18.8616L20.7516 6.56059V9.96259H14.3616V11.7806L15.3516 12.7706H20.5896V14.0846H14.6676ZM14.3616 8.70259H19.1676V6.92059L18.1776 5.93059H15.3516L14.3616 6.92059V8.70259ZM33.6264 14.0846H31.4664L29.3604 7.13659L27.2544 14.0846H25.0944L22.0524 4.67059H23.7264L25.9584 12.5006H26.3724L28.4784 4.67059H30.2244L32.3304 12.5006H32.7444L34.9944 4.67059H36.6504L33.6264 14.0846ZM38.183 14.0846V12.7706H43.169L44.015 11.9066V10.7726L43.115 9.87259H39.389L37.733 8.25259V6.34459L39.389 4.67059H44.699V6.00259H40.145L39.317 6.81259V7.73059L40.181 8.59459H43.943L45.599 10.2146V12.4286L43.961 14.0846H38.183Z" fill="#8A8B9F"/>
</svg>
