<svg width="89" height="15" viewBox="0 0 89 15" fill="none" xmlns="http://www.w3.org/2000/svg">
<path d="M2.1392 15L0.0391993 12.9V2.36L2.1392 0.259999H9.0992L11.1992 2.36V12.9L9.0992 15H2.1392ZM2.9592 13.38H8.2792L9.3792 12.28V2.98L8.2792 1.88H2.9592L1.8592 2.98V12.28L2.9592 13.38ZM17.2659 15L12.8259 4.54H14.7459L18.1259 13.24H18.5859L21.9459 4.54H23.8859L19.4459 15H17.2659ZM27.1792 15L25.0792 12.9V6.64L27.1792 4.54H31.8392L33.9392 6.64V10.42H26.8392V12.44L27.9392 13.54H33.7592V15H27.1792ZM26.8392 9.02H32.1792V7.04L31.0792 5.94H27.9392L26.8392 7.04V9.02ZM36.9794 15V4.54H38.7394V6.42L40.5594 4.54H43.2394V6.3H40.6394L38.7394 8.26V15H36.9794ZM48.555 15L44.115 4.54H46.035L49.415 13.24H49.875L53.235 4.54H55.175L50.735 15H48.555ZM57.077 3.4V1.04H58.837V3.4H57.077ZM57.077 15V4.54H58.837V15H57.077ZM63.9565 15L61.8565 12.9V6.64L63.9565 4.54H68.6165L70.7165 6.64V10.42H63.6165V12.44L64.7165 13.54H70.5365V15H63.9565ZM63.6165 9.02H68.9565V7.04L67.8565 5.94H64.7165L63.6165 7.04V9.02ZM85.0219 15H82.6219L80.2819 7.28L77.9419 15H75.5419L72.1619 4.54H74.0219L76.5019 13.24H76.9619L79.3019 4.54H81.2419L83.5819 13.24H84.0419L86.5419 4.54H88.3819L85.0219 15Z" fill="#0D1118"/>
</svg>
