<svg width="83" height="16" viewBox="0 0 83 16" fill="none" xmlns="http://www.w3.org/2000/svg">
<path d="M0.68 16V13.606L8.366 13.585L9.29 12.661L9.269 10.057L8.366 9.133H2.486L0.155 6.802V2.854L2.486 0.522999H11.054V2.917L3.725 2.938L2.78 3.841L2.801 5.899L3.725 6.844L9.584 6.823L11.915 9.154V13.669L9.584 16H0.68ZM14.7484 16V0.522999H25.3324V2.917H17.3734V6.697H24.6394V9.091H17.3734V13.606H25.3324V16H14.7484ZM26.5879 16L31.6279 0.522999H35.5549L40.5949 16H37.8019L36.6469 12.241H30.5359L29.3809 16H26.5879ZM31.2289 9.931H35.9329L33.8329 3.022H33.3289L31.2289 9.931ZM42.4749 16V0.522999H51.4839L53.8149 2.854V7.978L51.6939 10.099L54.3189 16H51.3369L48.9009 10.309H45.0999V16H42.4749ZM45.0999 7.999H50.2659L51.1899 7.075V3.757L50.2659 2.833H45.0999V7.999ZM58.967 16L56.636 13.669V2.854L58.967 0.522999H66.275L68.396 2.644L66.737 4.324L65.204 2.833H60.185L59.261 3.757L59.282 12.766L60.185 13.69H65.393L66.926 12.178L68.585 13.879L66.464 16H58.967ZM70.6937 16V0.522999H73.3187V6.739H80.1017V0.522999H82.7267V16H80.1017V9.049H73.3187V16H70.6937Z" fill="#151630"/>
</svg>
