<svg width="78" height="15" viewBox="0 0 78 15" fill="none" xmlns="http://www.w3.org/2000/svg">
<path d="M1.18166 14.2338V12.7218H7.71566L8.68766 11.7318V9.08579L7.71566 8.09579H2.58566L0.713656 6.22379V2.85779L2.58566 0.967794H9.64166V2.47979H3.32366L2.33366 3.46979L2.35166 5.66579L3.32366 6.65579H8.45366L10.3257 8.54579V12.3438L8.45366 14.2338H1.18166ZM14.6853 14.2338L13.0293 12.5958V6.0798H12.0393V4.8198H13.0653L13.4613 2.4078H14.6133V4.8198H16.6113V6.0798H14.6133V12.0378L15.4593 12.9198H17.0253V14.2338H14.6853ZM19.9766 14.2338L18.1046 12.3438V10.2018L19.9766 8.31179H24.7646V7.14179L23.7926 6.15179H19.3286V4.8198H24.4766L26.3486 6.70979V14.2338H24.7646V12.7758L23.3066 14.2338H19.9766ZM20.6786 12.9738H22.9106L24.7646 11.1378V9.55379L20.6786 9.5718L19.6886 10.5438V11.9838L20.6786 12.9738ZM30.9802 14.2338L29.3242 12.5958V6.0798H28.3342V4.8198H29.3602L29.7562 2.4078H30.9082V4.8198H32.9062V6.0798H30.9082V12.0378L31.7542 12.9198H33.3202V14.2338H30.9802ZM35.2455 3.79379V1.66979H36.8295V3.79379H35.2455ZM35.2455 14.2338V4.8198H36.8295V14.2338H35.2455ZM39.7631 14.2338V12.9198H44.7491L45.5951 12.0558V10.9218L44.6951 10.0218H40.9691L39.3131 8.4018V6.4938L40.9691 4.8198H46.2791V6.15179H41.7251L40.8971 6.96179V7.87979L41.7611 8.7438H45.5231L47.1791 10.3638V12.5778L45.5411 14.2338H39.7631ZM51.4412 14.2338L49.7852 12.5958V6.0798H48.7952V4.8198H49.8212L50.2172 2.4078H51.3692V4.8198H53.3672V6.0798H51.3692V12.0378L52.2152 12.9198H53.7812V14.2338H51.4412ZM55.7065 3.79379V1.66979H57.2905V3.79379H55.7065ZM55.7065 14.2338V4.8198H57.2905V14.2338H55.7065ZM61.898 14.2338L60.008 12.3438V6.70979L61.898 4.8198H66.2L67.856 6.45779V7.9518H66.272V6.97979L65.372 6.0798H62.582L61.592 7.06979V11.9118L62.582 12.9198H67.766V14.2338H61.898ZM70.2787 14.2338V12.9198H75.2647L76.1107 12.0558V10.9218L75.2107 10.0218H71.4847L69.8287 8.4018V6.4938L71.4847 4.8198H76.7947V6.15179H72.2407L71.4127 6.96179V7.87979L72.2767 8.7438H76.0387L77.6947 10.3638V12.5778L76.0567 14.2338H70.2787Z" fill="#8A8B9F"/>
</svg>
