<svg width="110" height="14" viewBox="0 0 110 14" fill="none" xmlns="http://www.w3.org/2000/svg">
<path d="M4.77366 13.8507V2.09674H0.831656V0.584738H10.3537V2.09674H6.41166V13.8507H4.77366ZM10.6694 13.8507V4.43674H12.2534V6.12874L13.8914 4.43674H16.3034V6.02074H13.9634L12.2534 7.78474V13.8507H10.6694ZM18.6036 13.8507L16.7316 11.9607V9.81874L18.6036 7.92874H23.3916V6.75874L22.4196 5.76874H17.9556V4.43674H23.1036L24.9756 6.32674V13.8507H23.3916V12.3927L21.9336 13.8507H18.6036ZM19.3056 12.5907H21.5376L23.3916 10.7547V9.17074L19.3056 9.18874L18.3156 10.1607V11.6007L19.3056 12.5907ZM27.8432 13.8507V4.43674H29.4272V6.12874L31.0652 4.43674H34.5392L36.4112 6.32674V13.8507H34.8272V6.72274L33.8732 5.69674H31.4792L29.4272 7.78474V13.8507H27.8432ZM39.269 13.8507V12.5367H44.255L45.101 11.6727V10.5387L44.201 9.63874H40.475L38.819 8.01874V6.11074L40.475 4.43674H45.785V5.76874H41.231L40.403 6.57874V7.49674L41.267 8.36074H45.029L46.685 9.98074V12.1947L45.047 13.8507H39.269ZM50.209 13.8507L48.337 11.9607V9.81874L50.209 7.92874H54.997V6.75874L54.025 5.76874H49.561V4.43674H54.709L56.581 6.32674V13.8507H54.997V12.3927L53.539 13.8507H50.209ZM50.911 12.5907H53.143L54.997 10.7547V9.17074L50.911 9.18874L49.921 10.1607V11.6007L50.911 12.5907ZM61.1227 13.8507L59.2327 11.9607V6.32674L61.1227 4.43674H65.4247L67.0807 6.07474V7.56874H65.4967V6.59674L64.5967 5.69674H61.8067L60.8167 6.68674V11.5287L61.8067 12.5367H66.9907V13.8507H61.1227ZM71.2673 13.8507L69.6113 12.2127V5.69674H68.6213V4.43674H69.6473L70.0433 2.02474H71.1953V4.43674H73.1933V5.69674H71.1953V11.6547L72.0413 12.5367H73.6073V13.8507H71.2673ZM75.5326 3.41074V1.28674H77.1166V3.41074H75.5326ZM75.5326 13.8507V4.43674H77.1166V13.8507H75.5326ZM81.7242 13.8507L79.8342 11.9607V6.32674L81.7242 4.43674H86.1882L88.0782 6.32674V11.9607L86.1882 13.8507H81.7242ZM82.4082 12.5907H85.5042L86.4942 11.6007L86.4762 6.68674L85.5042 5.69674H82.4082L81.4182 6.68674V11.6007L82.4082 12.5907ZM90.808 13.8507V4.43674H92.392V6.12874L94.03 4.43674H97.504L99.376 6.32674V13.8507H97.792V6.72274L96.838 5.69674H94.444L92.392 7.78474V13.8507H90.808ZM102.234 13.8507V12.5367H107.22L108.066 11.6727V10.5387L107.166 9.63874H103.44L101.784 8.01874V6.11074L103.44 4.43674H108.75V5.76874H104.196L103.368 6.57874V7.49674L104.232 8.36074H107.994L109.65 9.98074V12.1947L108.012 13.8507H102.234Z" fill="#8A8B9F"/>
</svg>
