<svg width="73" height="10" viewBox="0 0 73 10" fill="none" xmlns="http://www.w3.org/2000/svg">
<path d="M2.72052 9.7851V1.94909H0.0925234V0.941095H6.44052V1.94909H3.81252V9.7851H2.72052ZM6.65099 9.7851V3.5091H7.70699V4.63709L8.79899 3.5091H10.407V4.56509H8.84699L7.70699 5.7411V9.7851H6.65099ZM11.9405 9.7851L10.6925 8.5251V7.0971L11.9405 5.83709H15.1325V5.05709L14.4845 4.39709H11.5085V3.5091H14.9405L16.1885 4.7691V9.7851H15.1325V8.8131L14.1605 9.7851H11.9405ZM12.4085 8.9451H13.8965L15.1325 7.7211V6.66509L12.4085 6.6771L11.7485 7.3251V8.2851L12.4085 8.9451ZM18.1002 9.7851V3.5091H19.1562V4.63709L20.2482 3.5091H22.5642L23.8122 4.7691V9.7851H22.7562V5.03309L22.1202 4.3491H20.5242L19.1562 5.7411V9.7851H18.1002ZM25.7174 9.7851V8.9091H29.0414L29.6054 8.3331V7.5771L29.0054 6.9771H26.5214L25.4174 5.8971V4.6251L26.5214 3.5091H30.0614V4.39709H27.0254L26.4734 4.9371V5.5491L27.0494 6.1251H29.5574L30.6614 7.2051V8.6811L29.5694 9.7851H25.7174ZM33.0108 9.7851L31.7628 8.5251V7.0971L33.0108 5.83709H36.2028V5.05709L35.5548 4.39709H32.5788V3.5091H36.0108L37.2588 4.7691V9.7851H36.2028V8.8131L35.2308 9.7851H33.0108ZM33.4788 8.9451H34.9668L36.2028 7.7211V6.66509L33.4788 6.6771L32.8188 7.3251V8.2851L33.4788 8.9451ZM40.2865 9.7851L39.0265 8.5251V4.7691L40.2865 3.5091H43.1545L44.2585 4.6011V5.5971H43.2025V4.94909L42.6025 4.3491H40.7425L40.0825 5.00909V8.2371L40.7425 8.9091H44.1985V9.7851H40.2865ZM47.0496 9.7851L45.9456 8.6931V4.3491H45.2856V3.5091H45.9696L46.2336 1.9011H47.0016V3.5091H48.3336V4.3491H47.0016V8.3211L47.5656 8.9091H48.6096V9.7851H47.0496ZM49.8932 2.82509V1.4091H50.9492V2.82509H49.8932ZM49.8932 9.7851V3.5091H50.9492V9.7851H49.8932ZM54.0209 9.7851L52.7609 8.5251V4.7691L54.0209 3.5091H56.9969L58.2569 4.7691V8.5251L56.9969 9.7851H54.0209ZM54.4769 8.9451H56.5409L57.2009 8.2851L57.1889 5.00909L56.5409 4.3491H54.4769L53.8169 5.00909V8.2851L54.4769 8.9451ZM60.0768 9.7851V3.5091H61.1328V4.63709L62.2248 3.5091H64.5408L65.7888 4.7691V9.7851H64.7328V5.03309L64.0968 4.3491H62.5008L61.1328 5.7411V9.7851H60.0768ZM67.694 9.7851V8.9091H71.018L71.582 8.3331V7.5771L70.982 6.9771H68.498L67.394 5.8971V4.6251L68.498 3.5091H72.038V4.39709H69.002L68.45 4.9371V5.5491L69.026 6.1251H71.534L72.638 7.2051V8.6811L71.546 9.7851H67.694Z" fill="white"/>
</svg>
