<svg width="42" height="10" viewBox="0 0 42 10" fill="none" xmlns="http://www.w3.org/2000/svg">
<path d="M3.10449 9.7851L0.932489 0.941095H2.08449L3.82449 8.7411H4.08849L5.73249 0.941095H6.72849L8.37249 8.7411H8.63649L10.3765 0.941095H11.5285L9.35649 9.7851H7.64049L6.22449 3.25709L4.82049 9.7851H3.10449ZM12.9562 9.7851L11.7082 8.5251V7.0971L12.9562 5.83709H16.1482V5.05709L15.5002 4.39709H12.5242V3.5091H15.9562L17.2042 4.7691V9.7851H16.1482V8.8131L15.1762 9.7851H12.9562ZM13.4242 8.9451H14.9122L16.1482 7.7211V6.66509L13.4242 6.6771L12.7642 7.3251V8.2851L13.4242 8.9451ZM19.116 9.7851V0.941095H20.172V9.7851H19.116ZM22.1277 9.7851V0.941095H23.1837V9.7851H22.1277ZM26.2554 9.7851L24.9954 8.5251V4.7691L26.2554 3.5091H29.0514L30.3114 4.7691V7.0371H26.0514V8.2491L26.7114 8.9091H30.2034V9.7851H26.2554ZM26.0514 6.19709H29.2554V5.00909L28.5954 4.3491H26.7114L26.0514 5.00909V6.19709ZM33.3115 9.7851L32.2075 8.6931V4.3491H31.5475V3.5091H32.2315L32.4955 1.9011H33.2635V3.5091H34.5955V4.3491H33.2635V8.3211L33.8275 8.9091H34.8715V9.7851H33.3115ZM36.155 9.7851V8.9091H39.479L40.043 8.3331V7.5771L39.443 6.9771H36.959L35.855 5.8971V4.6251L36.959 3.5091H40.499V4.39709H37.463L36.911 4.9371V5.5491L37.487 6.1251H39.995L41.099 7.2051V8.6811L40.007 9.7851H36.155Z" fill="white"/>
</svg>
