<svg width="272" height="16" viewBox="0 0 272 16" fill="none" xmlns="http://www.w3.org/2000/svg">
<path d="M3.759 16L0.21 0.522999H3.003L5.481 13.501H5.985L8.463 0.522999H10.815L13.293 13.501H13.797L16.275 0.522999H19.068L15.498 16H11.529L9.639 6.235L7.749 16H3.759ZM20.9573 16V0.522999H31.5413V2.917H23.5823V6.697H30.8483V9.091H23.5823V13.606H31.5413V16H20.9573ZM34.2669 16V0.522999H36.8919V13.606H44.3889V16H34.2669ZM48.1955 16L45.8645 13.669V2.854L48.1955 0.522999H55.5035L57.6245 2.644L55.9655 4.324L54.4325 2.833H49.4135L48.4895 3.757L48.5105 12.766L49.4135 13.69H54.6215L56.1545 12.178L57.8135 13.879L55.6925 16H48.1955ZM61.8332 16L59.5022 13.669V2.854L61.8332 0.522999H69.4142L71.7452 2.854V13.669L69.4142 16H61.8332ZM63.0722 13.69H68.1962L69.1202 12.766L69.0992 3.757L68.1962 2.833H63.0512L62.1272 3.757L62.1482 12.766L63.0722 13.69ZM74.6878 16V0.522999H78.0058L82.4578 11.758L86.8888 0.522999H90.2068V16H87.5818V5.185L83.1928 16H81.7018L77.3128 5.185V16H74.6878ZM93.5755 16V0.522999H104.16V2.917H96.2005V6.697H103.467V9.091H96.2005V13.606H104.16V16H93.5755ZM114.808 16V2.917H110.503V0.522999H121.738V2.917H117.433V16H114.808ZM125.654 16L123.323 13.669V2.854L125.654 0.522999H133.235L135.566 2.854V13.669L133.235 16H125.654ZM126.893 13.69H132.017L132.941 12.766L132.92 3.757L132.017 2.833H126.872L125.948 3.757L125.969 12.766L126.893 13.69ZM143.492 16V0.522999H152.417L155.672 3.778V12.745L152.417 16H143.492ZM146.117 13.69H151.178L153.026 11.842V4.681L151.178 2.833H146.117V13.69ZM156.664 16L161.704 0.522999H165.631L170.671 16H167.878L166.723 12.241H160.612L159.457 16H156.664ZM161.305 9.931H166.009L163.909 3.022H163.405L161.305 9.931ZM172.079 16V13.606L179.765 13.585L180.689 12.661L180.668 10.057L179.765 9.133H173.885L171.554 6.802V2.854L173.885 0.522999H182.453V2.917L175.124 2.938L174.179 3.841L174.2 5.899L175.124 6.844L180.983 6.823L183.314 9.154V13.669L180.983 16H172.079ZM186.148 16V0.522999H188.773V6.739H195.556V0.522999H198.181V16H195.556V9.049H188.773V16H186.148ZM201.549 16V0.522999H210.453L212.784 2.854V6.487L211.776 7.621L213.477 9.301V13.669L211.146 16H201.549ZM204.174 6.739H209.235L210.138 5.689V3.757L209.214 2.833H204.174V6.739ZM204.174 13.69H209.907L210.831 12.766V9.973L209.907 9.049H204.174V13.69ZM218.103 16L215.772 13.669V2.854L218.103 0.522999H225.684L228.015 2.854V13.669L225.684 16H218.103ZM219.342 13.69H224.466L225.39 12.766L225.369 3.757L224.466 2.833H219.321L218.397 3.757L218.418 12.766L219.342 13.69ZM229.262 16L234.302 0.522999H238.229L243.269 16H240.476L239.321 12.241H233.21L232.055 16H229.262ZM233.903 9.931H238.607L236.507 3.022H236.003L233.903 9.931ZM245.149 16V0.522999H254.158L256.489 2.854V7.978L254.368 10.099L256.993 16H254.011L251.575 10.309H247.774V16H245.149ZM247.774 7.999H252.94L253.864 7.075V3.757L252.94 2.833H247.774V7.999ZM259.73 16V0.522999H268.655L271.91 3.778V12.745L268.655 16H259.73ZM262.355 13.69H267.416L269.264 11.842V4.681L267.416 2.833H262.355V13.69Z" fill="#151630"/>
</svg>
