<svg width="52" height="14" viewBox="0 0 52 14" fill="none" xmlns="http://www.w3.org/2000/svg">
<path d="M4.08966 13.6169L0.831656 0.350912H2.55966L5.16966 12.0509H5.56566L8.03166 0.350912H9.52566L11.9917 12.0509H12.3877L14.9977 0.350912H16.7257L13.4677 13.6169H10.8937L8.76966 3.82491L6.66366 13.6169H4.08966ZM19.5152 13.6169L17.6252 11.7269V6.09291L19.5152 4.20291H23.7092L25.5992 6.09291V9.49491H19.2092V11.3129L20.1992 12.3029H25.4372V13.6169H19.5152ZM19.2092 8.23491H24.0152V6.45291L23.0252 5.46291H20.1992L19.2092 6.45291V8.23491ZM28.3354 13.6169V0.350912H29.9194V13.6169H28.3354ZM32.853 13.6169V0.350912H34.437V13.6169H32.853ZM39.0445 13.6169L37.1545 11.7269V6.09291L39.0445 4.20291H43.2385L45.1285 6.09291V9.49491H38.7385V11.3129L39.7285 12.3029H44.9665V13.6169H39.0445ZM38.7385 8.23491H43.5445V6.45291L42.5545 5.46291H39.7285L38.7385 6.45291V8.23491ZM49.6287 13.6169L47.9727 11.9789V5.46291H46.9827V4.20291H48.0087L48.4047 1.79091H49.5567V4.20291H51.5547V5.46291H49.5567V11.4209L50.4027 12.3029H51.9687V13.6169H49.6287Z" fill="#8A8B9F"/>
</svg>
